<?xml version="1.0" encoding="UTF-8" standalone="no"?>
<svg width="82px" height="82px" viewBox="0 0 82 82" version="1.1" xmlns="http://www.w3.org/2000/svg" xmlns:xlink="http://www.w3.org/1999/xlink">
    <!-- Generator: Sketch 50.2 (55047) - http://www.bohemiancoding.com/sketch -->
    <title>noun_Download_2310355</title>
    <desc>Created with Sketch.</desc>
    <defs></defs>
    <g id="Page-2" stroke="none" stroke-width="1" fill="none" fill-rule="evenodd">
        <g id="noun_Download_2310355" fill="#9DE7B3" fill-rule="nonzero">
            <path d="M41,0 C18.4,0 0,18.4 0,41 C0,63.6 18.4,82 41,82 C63.6,82 82,63.6 82,41 C82,18.4 63.6,0 41,0 Z M56.4,46.4 L42.4,60.4 C42.3,60.5 42.2,60.6 42.1,60.6 C42.1,60.6 42,60.7 42,60.7 C41.9,60.7 41.9,60.8 41.8,60.8 C41.7,60.8 41.7,60.8 41.6,60.9 C41.6,60.9 41.5,60.9 41.4,60.9 C41.3,60.9 41.1,60.9 41,60.9 C40.9,60.9 40.7,60.9 40.6,60.9 C40.5,60.9 40.5,60.9 40.4,60.9 C40.3,60.9 40.3,60.9 40.2,60.8 C40.1,60.8 40.1,60.7 40,60.7 C39.9,60.7 39.9,60.7 39.8,60.6 C39.7,60.5 39.6,60.5 39.5,60.4 L25.5,46.4 C24.7,45.6 24.7,44.4 25.5,43.6 C26.3,42.8 27.5,42.8 28.3,43.6 L39,54.2 L39,23 C39,21.9 39.9,21 41,21 C42.1,21 43,21.9 43,23 L43,54.2 L53.6,43.6 C54.4,42.8 55.6,42.8 56.4,43.6 C57.2,44.4 57.2,45.6 56.4,46.4 Z" id="Shape"></path>
        </g>
    </g>
</svg>